<svg width="300" height="300" viewBox="0 0 300 300" fill="none" xmlns="http://www.w3.org/2000/svg">
<g clip-path="url(#clip0_2002_8339)">
<circle cx="150" cy="150" r="148.674" stroke="#D25177" stroke-width="2.65233"/>
<path fill-rule="evenodd" clip-rule="evenodd" d="M103.491 96.2685C101.714 94.6125 99.3634 93.7109 96.9346 93.7538C94.5059 93.7966 92.1886 94.7805 90.4709 96.4982C88.7532 98.2159 87.7693 100.533 87.7265 102.962C87.6836 105.391 88.5852 107.741 90.2412 109.518L136.741 156.018L90.2412 202.518C89.3201 203.377 88.5813 204.412 88.0689 205.562C87.5565 206.712 87.281 207.953 87.2588 209.212C87.2366 210.471 87.4681 211.721 87.9396 212.888C88.4112 214.056 89.113 215.116 90.0032 216.006C90.8934 216.897 91.9539 217.598 93.1212 218.07C94.2886 218.542 95.5389 218.773 96.7977 218.751C98.0565 218.729 99.2979 218.453 100.448 217.941C101.598 217.428 102.633 216.69 103.491 215.768L149.991 169.268L196.491 215.768C197.349 216.69 198.384 217.428 199.534 217.941C200.684 218.453 201.926 218.729 203.185 218.751C204.443 218.773 205.694 218.542 206.861 218.07C208.028 217.598 209.089 216.897 209.979 216.006C210.869 215.116 211.571 214.056 212.043 212.888C212.514 211.721 212.746 210.471 212.724 209.212C212.701 207.953 212.426 206.712 211.913 205.562C211.401 204.412 210.662 203.377 209.741 202.518L163.241 156.018L209.741 109.518C211.397 107.741 212.299 105.391 212.256 102.962C212.213 100.533 211.229 98.2159 209.511 96.4982C207.794 94.7805 205.476 93.7966 203.048 93.7538C200.619 93.7109 198.268 94.6125 196.491 96.2685L149.991 142.768L103.491 96.2685Z" fill="#D25177"/>
</g>
<defs>
<clipPath id="clip0_2002_8339">
<rect width="300" height="300" fill="white"/>
</clipPath>
</defs>
</svg>
