<svg width="300" height="300" viewBox="0 0 300 300" fill="none" xmlns="http://www.w3.org/2000/svg">
<g clip-path="url(#clip0_2002_8333)">
<path d="M123.612 217.202C120.105 217.201 116.741 215.807 114.262 213.327L63.4792 162.544C62.2161 161.324 61.2087 159.865 60.5156 158.252C59.8225 156.638 59.4577 154.903 59.4424 153.147C59.4271 151.391 59.7617 149.65 60.4267 148.024C61.0916 146.399 62.0736 144.923 63.3153 143.681C64.557 142.439 66.0336 141.457 67.6588 140.792C69.2841 140.127 71.0255 139.793 72.7814 139.808C74.5374 139.823 76.2727 140.188 77.8862 140.881C79.4997 141.574 80.9589 142.582 82.1789 143.845L123.612 185.278L222.175 86.7143C224.669 84.3053 228.01 82.9724 231.477 83.0025C234.945 83.0326 238.261 84.4234 240.713 86.8754C243.165 89.3274 244.556 92.6443 244.586 96.1117C244.616 99.5792 243.283 102.92 240.875 105.414L132.961 213.327C130.482 215.807 127.119 217.201 123.612 217.202Z" fill="#50B85B"/>
<circle cx="150" cy="150" r="148.674" stroke="#50B85B" stroke-width="2.65233"/>
</g>
<defs>
<clipPath id="clip0_2002_8333">
<rect width="300" height="300" fill="white"/>
</clipPath>
</defs>
</svg>
