<svg width="1020" height="1020" viewBox="0 0 1020 1020" fill="none" xmlns="http://www.w3.org/2000/svg">
<g clip-path="url(#clip0_523_5821)">
<path d="M386.981 647.327H633.021C637.017 647.326 640.945 646.289 644.42 644.316C647.895 642.343 650.799 639.502 652.848 636.072C654.897 632.641 656.021 628.737 656.11 624.742C656.199 620.747 655.249 616.797 653.355 613.278L530.342 384.822C521.615 368.624 498.387 368.624 489.66 384.822L366.647 613.278C364.753 616.797 363.804 620.747 363.892 624.742C363.981 628.737 365.105 632.641 367.154 636.072C369.203 639.502 372.107 642.343 375.582 644.316C379.057 646.289 382.985 647.326 386.981 647.327Z" stroke="#E2AC1D" stroke-width="23.0983" stroke-linecap="round" stroke-linejoin="round"/>
<path d="M505.856 466.251L510 554.313L514.136 466.287C514.161 465.724 514.072 465.162 513.873 464.635C513.674 464.108 513.369 463.627 512.978 463.222C512.587 462.816 512.117 462.495 511.598 462.277C511.078 462.06 510.52 461.95 509.956 461.956C509.403 461.961 508.856 462.077 508.348 462.298C507.841 462.518 507.382 462.838 507 463.238C506.618 463.638 506.32 464.111 506.123 464.629C505.927 465.146 505.836 465.698 505.856 466.251Z" stroke="#E2AC1D" stroke-width="23.0983" stroke-linecap="round" stroke-linejoin="round"/>
<path d="M510.001 611.957C507.146 611.957 504.355 611.111 501.98 609.524C499.606 607.938 497.756 605.683 496.663 603.045C495.571 600.408 495.285 597.505 495.842 594.705C496.399 591.904 497.774 589.332 499.793 587.313C501.812 585.294 504.384 583.919 507.184 583.362C509.985 582.805 512.888 583.091 515.525 584.183C518.163 585.276 520.418 587.126 522.004 589.5C523.591 591.875 524.437 594.666 524.437 597.521C524.437 601.35 522.916 605.022 520.209 607.729C517.502 610.436 513.83 611.957 510.001 611.957Z" fill="#E2AC1D"/>
<circle cx="510.001" cy="510" r="496.893" stroke="#E2AC1D" stroke-width="25"/>
</g>
<defs>
<clipPath id="clip0_523_5821">
<rect width="1020" height="1020" fill="white"/>
</clipPath>
</defs>
</svg>
